<svg width="631" height="139" viewBox="0 0 631 139" fill="none" xmlns="http://www.w3.org/2000/svg">
<path d="M164.696 2.51944C166.029 5.05278 165.763 6.11944 162.429 10.2528C149.229 27.0528 144.429 47.9861 146.296 81.3194C147.629 108.119 153.363 125.319 163.763 133.719C168.563 137.586 169.763 137.853 179.229 137.853C188.296 137.853 190.296 137.453 195.096 134.119C204.563 127.986 210.696 114.786 214.563 92.6528C215.763 85.7194 217.096 81.7194 218.829 80.3861C223.629 76.6528 228.963 74.3861 232.829 74.2528C241.629 73.9861 233.096 65.3194 222.963 64.2528C217.629 63.5861 216.829 63.0528 216.163 59.7194C215.763 57.5861 216.029 54.3861 216.696 52.5194C217.363 50.6528 217.496 49.1861 216.963 49.1861C216.296 49.1861 215.096 44.6528 214.163 39.1861C211.096 20.9194 201.896 5.85278 192.029 2.51944C189.496 1.71944 183.363 1.05278 178.429 1.31944C173.363 1.45278 167.896 1.05278 166.163 0.519443C163.229 -0.413891 163.229 -0.280557 164.696 2.51944ZM190.829 10.6528C196.696 14.2528 201.763 23.0528 204.296 33.8528C206.163 42.1194 206.163 42.5194 203.229 46.5194L200.163 50.6528L198.429 43.3194C195.629 30.9194 183.896 10.5194 180.829 12.5194C180.296 12.7861 179.763 11.8528 179.763 10.3861C179.496 6.91944 184.963 7.05278 190.829 10.6528ZM174.963 13.8528C175.629 14.3861 175.229 14.5194 174.163 13.8528C172.696 13.0528 172.429 13.3194 173.229 15.3194C173.763 16.6528 175.096 22.3861 176.163 27.8528C180.296 49.0528 182.963 54.3861 192.296 59.7194C194.163 60.7861 194.029 61.8528 190.829 69.9861C188.829 75.0528 184.963 83.0528 182.296 87.8528L177.363 96.5194L176.429 87.8528C174.296 68.5194 168.429 47.8528 165.096 47.8528C162.963 47.8528 162.963 48.6528 164.696 51.9861C165.763 53.8528 165.629 54.5194 164.429 54.5194C163.496 54.5194 164.029 55.4528 165.763 56.5194C168.296 58.3861 173.896 72.6528 172.429 73.7194C172.296 73.9861 170.829 72.9194 169.363 71.4528C167.896 69.9861 167.629 69.3194 168.696 69.8528C169.763 70.5194 170.296 70.5194 169.763 69.9861C169.363 69.4528 168.429 68.9194 167.763 68.9194C167.229 68.9194 164.563 67.7194 162.029 66.2528C157.363 63.4528 157.363 63.4528 163.363 69.5861C168.963 75.5861 169.096 75.8528 165.896 75.8528C164.029 75.8528 161.363 74.9194 159.896 73.8528C158.563 72.7861 156.829 71.9861 156.029 71.8528C155.363 71.8528 156.563 73.0528 158.696 74.5194C160.963 75.9861 164.563 77.1861 166.829 77.1861C169.096 77.1861 171.629 77.9861 172.429 78.9194C174.163 80.9194 176.696 99.7194 176.829 112.519C176.963 117.586 177.496 123.586 178.029 125.853C178.696 128.119 178.829 123.053 178.429 114.253C177.763 99.7194 177.896 98.3861 180.696 93.8528C182.829 90.2528 184.296 89.3194 185.896 89.9861C190.429 91.9861 197.763 91.9861 202.429 89.9861C207.229 87.9861 207.363 87.9861 207.363 91.0528C207.363 97.0528 201.896 115.186 198.563 120.253C193.363 128.119 188.163 130.786 178.963 130.119C172.829 129.719 170.563 128.919 167.363 125.853C157.496 116.386 153.363 98.2528 154.429 67.1861C154.963 48.9194 155.496 44.2528 158.429 35.1861C164.029 17.9861 170.829 9.18611 174.963 13.8528ZM190.563 27.3194C190.963 28.3861 190.829 28.9194 190.029 28.5194C189.229 28.1194 188.696 27.1861 188.696 26.3861C188.696 24.5194 189.629 24.9194 190.563 27.3194ZM207.363 52.5194C207.363 57.7194 206.963 58.5194 204.163 59.3194C196.829 61.0528 196.163 59.5861 201.363 52.7861C204.029 49.3194 206.429 46.5194 206.696 46.5194C207.096 46.5194 207.363 49.1861 207.363 52.5194ZM208.696 63.1861C208.696 65.7194 207.629 66.9194 203.763 68.5194C201.096 69.7194 196.696 72.2528 194.163 74.1194C190.296 77.1861 189.763 77.3194 190.563 75.0528C191.229 73.7194 192.563 69.9861 193.629 66.9194C195.363 61.8528 196.029 61.3194 200.429 60.7861C203.096 60.5194 206.163 60.2528 207.096 60.1194C208.029 59.9861 208.696 61.3194 208.696 63.1861ZM228.696 72.3861C228.696 72.6528 227.496 73.1861 226.029 73.5861C224.563 73.9861 223.629 73.7194 224.163 73.0528C224.829 71.8528 228.696 71.3194 228.696 72.3861Z" fill="black"/>
<path d="M163.363 29.4528C163.363 29.9862 164.963 33.3195 166.963 36.7862C168.829 40.2528 171.229 45.8528 172.163 49.1862C173.496 53.9862 173.763 54.5195 173.896 51.4528C174.029 49.4528 173.229 45.7195 172.163 43.1862C170.163 38.5195 163.363 27.8528 163.363 29.4528Z" fill="black"/>
<path d="M163.363 63.0528C163.363 63.3194 164.429 64.3861 165.763 65.3194C167.763 67.0528 167.896 66.9194 166.163 64.7861C164.429 62.6528 163.363 61.9861 163.363 63.0528Z" fill="black"/>
<path d="M158.029 69.0528C158.029 69.8528 158.563 70.7862 159.363 71.1862C160.163 71.5862 160.296 71.0528 159.896 69.9862C158.963 67.5862 158.029 67.1862 158.029 69.0528Z" fill="black"/>
<path d="M0.696073 1.45281C0.696073 1.71948 0.429406 32.2528 0.16274 69.4528C-0.23726 128.519 0.0294064 137.053 1.76274 137.453C2.82941 137.719 13.3627 137.586 25.2294 137.186L46.6961 136.519V133.186V129.853H27.3627H8.02941L7.62941 106.119L7.36274 82.5195H17.8961C25.4961 82.5195 28.8294 81.9861 30.0294 80.5195C32.9627 77.0528 30.0294 75.8528 18.5627 75.8528H7.36274V44.6528C7.36274 27.4528 7.76274 12.5195 8.16274 11.3195C8.82941 9.58614 11.3627 9.18614 22.0294 9.18614C31.8961 9.18614 35.3627 8.65281 36.6961 7.18614C38.0294 5.58614 38.0294 4.78614 36.6961 3.18614C35.3627 1.58614 31.4961 1.18614 17.8961 1.18614C8.42941 1.18614 0.696073 1.31948 0.696073 1.45281Z" fill="black"/>
<path d="M90.4294 2.51946C78.8294 5.31946 70.4294 18.1195 65.0961 41.7195C61.8961 55.4528 62.0294 94.5195 65.0961 107.186C70.2961 128.386 79.3627 138.519 92.9627 138.519C108.296 138.519 118.296 128.119 121.896 108.519C123.496 99.7195 122.829 97.1861 118.563 97.1861C115.229 97.1861 114.829 98.1195 113.496 109.719C112.563 117.719 107.896 126.119 103.096 128.653C98.6961 130.919 90.0294 131.053 85.4961 129.053C80.8294 126.919 75.7627 118.653 73.2294 109.586C72.0294 105.186 70.8294 93.5861 70.4294 82.5195C69.0961 45.8528 76.8294 17.1861 89.7627 11.0528C94.8294 8.6528 102.163 9.18613 105.763 12.1195C109.896 15.5861 112.963 25.3195 113.896 37.9861C114.829 50.7861 116.163 54.1195 120.163 52.6528C122.163 51.8528 122.296 50.2528 121.629 38.1195C120.563 16.7861 114.563 5.71946 102.563 2.6528C96.2961 1.0528 96.4294 1.0528 90.4294 2.51946Z" fill="black"/>
<path d="M242.963 2.11944C242.696 2.78611 242.696 33.0528 243.096 69.4528C243.629 132.653 243.763 135.853 246.163 136.519C247.496 137.053 249.229 136.919 250.029 136.519C250.829 135.986 251.363 125.586 251.363 109.053V82.5194H261.229C272.829 82.5194 275.363 81.8528 275.363 78.3861C275.363 76.1194 274.296 75.8528 263.363 75.8528H251.363V42.5194V9.18611H265.763C281.096 9.18611 284.296 8.11944 281.896 3.58611C280.696 1.45278 278.696 1.18611 262.029 1.18611C251.896 1.18611 243.229 1.58611 242.963 2.11944Z" fill="black"/>
<path d="M321.496 2.91946C319.496 4.38613 316.429 16.5195 308.029 55.9861C301.896 84.1195 295.496 113.053 293.629 120.386C291.763 127.586 290.563 134.386 290.963 135.319C291.363 136.386 293.096 137.186 294.829 137.186C298.429 137.186 298.296 137.719 303.363 112.519L306.829 95.1861L315.363 94.1195C323.363 93.1861 340.296 93.7195 341.629 95.0528C341.896 95.3195 344.163 104.253 346.563 114.919C348.963 125.453 351.363 134.919 351.896 135.719C353.229 137.719 357.629 137.586 358.429 135.453C358.696 134.519 355.896 121.186 352.029 105.719C345.896 81.8528 337.096 41.8528 331.363 12.9195C330.029 5.85279 327.363 1.18613 324.829 1.18613C324.296 1.18613 322.829 1.98613 321.496 2.91946ZM332.429 50.6528L340.163 85.8528L324.963 86.2528C316.563 86.3861 309.496 86.3861 309.229 86.1195C308.963 85.8528 312.163 69.5861 316.296 50.1195C320.429 30.5195 324.029 14.7861 324.296 15.0528C324.563 15.3195 328.163 31.3195 332.429 50.6528Z" fill="black"/>
<path d="M437.096 2.78613C436.563 3.71946 436.029 28.2528 436.029 57.1861V109.853L432.163 117.586C427.629 126.919 422.563 130.519 414.029 130.519C406.163 130.519 400.296 126.786 396.563 119.586C392.563 111.586 391.096 89.7195 391.629 41.8528L392.029 3.18613L388.829 2.78613C387.096 2.51946 385.229 2.78613 384.696 3.4528C384.029 3.98613 384.029 29.0528 384.563 59.1861C385.496 110.919 385.763 114.253 388.429 121.319C393.096 132.919 400.829 138.519 412.829 138.519C426.029 138.519 435.896 130.653 440.163 116.653C442.563 108.519 444.563 70.7861 444.696 31.5861C444.696 5.58613 444.563 3.8528 442.163 2.51946C438.829 0.78613 438.429 0.78613 437.096 2.78613Z" fill="black"/>
<path d="M476.696 3.71948C475.896 5.45282 475.363 28.9195 475.363 71.0528C475.363 135.586 475.363 135.719 478.163 136.519C479.763 137.053 481.496 136.919 482.296 136.119C483.096 135.319 483.496 113.719 483.096 76.1195C482.963 43.7195 483.096 17.7195 483.496 18.2528C483.896 18.7862 485.629 23.0528 487.363 27.8528C489.096 32.6528 496.563 51.8528 504.029 70.5195C511.496 89.1862 519.896 110.786 522.696 118.519C527.763 132.386 530.429 137.186 533.229 137.186C538.296 137.053 538.296 136.919 538.296 69.7195C538.296 33.8528 538.163 3.71948 538.163 2.78615C538.029 0.919483 531.896 0.652817 530.696 2.51948C530.296 3.18615 530.563 30.2528 531.363 62.6528C532.163 95.0528 532.563 121.719 532.296 121.986C531.896 122.519 521.229 95.1862 500.429 39.8528C493.096 20.3862 486.429 3.71948 485.763 2.78615C483.629 0.252817 478.296 0.919483 476.696 3.71948Z" fill="black"/>
<path d="M592.163 4.1195C591.229 5.85283 585.763 28.7862 580.163 55.1862C574.563 81.5862 568.163 110.119 566.029 118.519C562.029 134.653 562.296 137.719 567.896 136.919C570.296 136.519 571.096 134.119 574.696 115.853L578.829 95.1862L586.029 94.1195C597.229 92.6528 613.763 94.2528 614.563 97.0528C614.829 98.2528 616.696 106.386 618.696 115.186C622.963 134.653 623.896 137.186 627.229 137.186C631.363 137.186 631.363 134.119 627.229 118.919C621.363 97.0528 602.029 10.5195 602.029 5.7195C602.029 5.58617 601.096 4.38617 599.896 3.3195C596.963 0.386165 594.429 0.652832 592.163 4.1195ZM603.363 45.3195C606.829 61.7195 610.429 77.7195 611.096 80.7862L612.429 86.5195H596.429C581.763 86.5195 580.429 86.2528 580.963 84.1195C581.363 82.9195 584.829 66.6528 588.696 48.2528C592.696 29.7195 596.029 14.7862 596.296 15.0528C596.563 15.3195 599.763 28.9195 603.363 45.3195Z" fill="black"/>
<path d="M222.163 37.9862C222.163 39.4528 222.563 39.8528 222.963 38.7862C223.363 37.8528 223.229 36.6528 222.829 36.2528C222.429 35.7195 222.029 36.5195 222.163 37.9862Z" fill="black"/>
<path d="M220.163 43.4529C219.363 45.3195 219.496 45.4529 220.829 44.2529C221.763 43.3195 222.163 42.2529 221.763 41.8529C221.363 41.4529 220.563 42.1195 220.163 43.4529Z" fill="black"/>
<path d="M131.096 55.4528C131.896 55.7195 133.496 55.7195 134.429 55.4528C135.229 55.0528 134.563 54.7862 132.696 54.7862C130.829 54.7862 130.163 55.0528 131.096 55.4528Z" fill="black"/>
<path d="M123.363 57.1861C122.296 57.8528 122.029 58.5195 122.696 58.5195C123.496 58.5195 124.963 57.8528 126.029 57.1861C127.096 56.5195 127.496 55.8528 126.696 55.8528C126.029 55.8528 124.429 56.5195 123.363 57.1861Z" fill="black"/>
</svg>
