<?xml version="1.0" standalone="no"?>
<!DOCTYPE svg PUBLIC "-//W3C//DTD SVG 20010904//EN"
 "http://www.w3.org/TR/2001/REC-SVG-20010904/DTD/svg10.dtd">
<svg version="1.0" xmlns="http://www.w3.org/2000/svg"
 width="500.000000pt" height="500.000000pt" viewBox="0 0 500.000000 500.000000"
 preserveAspectRatio="xMidYMid meet">

<g transform="translate(0.000000,500.000000) scale(0.100000,-0.100000)"
fill="#000000" stroke="none">
<path d="M1400 3070 c10 -19 8 -27 -17 -58 -99 -126 -135 -283 -121 -533 10
-201 53 -330 131 -393 36 -29 45 -31 116 -31 68 0 83 3 119 28 71 46 117 145
146 311 9 52 19 82 32 92 36 28 76 45 105 46 66 2 2 67 -74 75 -40 5 -46 9
-51 34 -3 16 -1 40 4 54 5 14 6 25 2 25 -5 0 -14 34 -21 75 -23 137 -92 250
-166 275 -19 6 -65 11 -102 9 -38 -1 -79 2 -92 6 -22 7 -22 6 -11 -15z m196
-61 c44 -27 82 -93 101 -174 14 -62 14 -65 -8 -95 l-23 -31 -13 55 c-21 93
-109 246 -132 231 -4 -2 -8 5 -8 16 -2 26 39 25 83 -2z m-119 -24 c5 -4 2 -5
-6 0 -11 6 -13 4 -7 -11 4 -10 14 -53 22 -94 31 -159 51 -199 121 -239 14 -8
13 -16 -11 -77 -15 -38 -44 -98 -64 -134 l-37 -65 -7 65 c-16 145 -60 300 -85
300 -16 0 -16 -6 -3 -31 8 -14 7 -19 -2 -19 -7 0 -3 -7 10 -15 19 -14 61 -121
50 -129 -1 -2 -12 6 -23 17 -11 11 -13 16 -5 12 8 -5 12 -5 8 -1 -3 4 -10 8
-15 8 -4 0 -24 9 -43 20 -35 21 -35 21 10 -25 42 -45 43 -47 19 -47 -14 0 -34
7 -45 15 -10 8 -23 14 -29 15 -5 0 4 -9 20 -20 17 -11 44 -20 61 -20 17 0 36
-6 42 -13 13 -15 32 -156 33 -252 1 -38 5 -83 9 -100 5 -17 6 21 3 87 -5 109
-4 119 17 153 16 27 27 34 39 29 34 -15 89 -15 124 0 36 15 37 15 37 -8 0 -45
-41 -181 -66 -219 -39 -59 -78 -79 -147 -74 -46 3 -63 9 -87 32 -74 71 -105
207 -97 440 4 137 8 172 30 240 42 129 93 195 124 160z m117 -101 c3 -8 2 -12
-4 -9 -6 3 -10 10 -10 16 0 14 7 11 14 -7z m126 -189 c0 -39 -3 -45 -24 -51
-55 -13 -60 -2 -21 49 20 26 38 47 40 47 3 0 5 -20 5 -45z m10 -80 c0 -19 -8
-28 -37 -40 -20 -9 -53 -28 -72 -42 -29 -23 -33 -24 -27 -7 5 10 15 38 23 61
13 38 18 42 51 46 20 2 43 4 50 5 7 1 12 -9 12 -23z m150 -69 c0 -2 -9 -6 -20
-9 -11 -3 -18 -1 -14 4 5 9 34 13 34 5z"/>
<path d="M1390 2868 c0 -4 12 -29 27 -55 14 -26 32 -68 39 -93 10 -36 12 -40
13 -17 1 15 -5 43 -13 62 -15 35 -66 115 -66 103z"/>
<path d="M1390 2616 c0 -2 8 -10 18 -17 15 -13 16 -12 3 4 -13 16 -21 21 -21
13z"/>
<path d="M1350 2571 c0 -6 4 -13 10 -16 6 -3 7 1 4 9 -7 18 -14 21 -14 7z"/>
<path d="M170 3078 c0 -2 -2 -231 -4 -510 -3 -443 -1 -507 12 -510 8 -2 87 -1
176 2 l161 5 0 25 0 25 -145 0 -145 0 -3 178 -2 177 79 0 c57 0 82 4 91 15 22
26 0 35 -86 35 l-84 0 0 234 c0 129 3 241 6 250 5 13 24 16 104 16 74 0 100 4
110 15 10 12 10 18 0 30 -10 12 -39 15 -141 15 -71 0 -129 -1 -129 -2z"/>
<path d="M843 3070 c-87 -21 -150 -117 -190 -294 -24 -103 -23 -396 0 -491 39
-159 107 -235 209 -235 115 0 190 78 217 225 12 66 7 85 -25 85 -25 0 -28 -7
-38 -94 -7 -60 -42 -123 -78 -142 -33 -17 -98 -18 -132 -3 -35 16 -73 78 -92
146 -9 33 -18 120 -21 203 -10 275 48 490 145 536 38 18 93 14 120 -8 31 -26
54 -99 61 -194 7 -96 17 -121 47 -110 15 6 16 18 11 109 -8 160 -53 243 -143
266 -47 12 -46 12 -91 1z"/>
<path d="M1987 3073 c-2 -5 -2 -232 1 -505 4 -474 5 -498 23 -503 10 -4 23 -3
29 0 6 4 10 82 10 206 l0 199 74 0 c87 0 106 5 106 31 0 17 -8 19 -90 19 l-90
0 0 250 0 250 108 0 c115 0 139 8 121 42 -9 16 -24 18 -149 18 -76 0 -141 -3
-143 -7z"/>
<path d="M2576 3067 c-15 -11 -38 -102 -101 -398 -46 -211 -94 -428 -108 -483
-14 -54 -23 -105 -20 -112 3 -8 16 -14 29 -14 27 0 26 -4 64 185 l26 130 64 8
c60 7 187 3 197 -7 2 -2 19 -69 37 -149 18 -79 36 -150 40 -156 10 -15 43 -14
49 2 2 7 -19 107 -48 223 -46 179 -112 479 -155 696 -10 53 -30 88 -49 88 -4
0 -15 -6 -25 -13z m82 -358 l58 -264 -114 -3 c-63 -1 -116 -1 -118 1 -2 2 22
124 53 270 31 147 58 265 60 263 2 -2 29 -122 61 -267z"/>
<path d="M3443 3068 c-4 -7 -8 -191 -8 -408 l0 -395 -29 -58 c-34 -70 -72 -97
-136 -97 -59 0 -103 28 -131 82 -30 60 -41 224 -37 583 l3 290 -24 3 c-13 2
-27 0 -31 -5 -5 -4 -5 -192 -1 -418 7 -388 9 -413 29 -466 35 -87 93 -129 183
-129 99 0 173 59 205 164 18 61 33 344 34 638 0 195 -1 208 -19 218 -25 13
-28 13 -38 -2z"/>
<path d="M3740 3061 c-6 -13 -10 -189 -10 -505 0 -484 0 -485 21 -491 12 -4
25 -3 31 3 6 6 9 168 6 450 -1 243 0 438 3 434 3 -4 16 -36 29 -72 13 -36 69
-180 125 -320 56 -140 119 -302 140 -360 38 -104 58 -140 79 -140 38 1 38 2
38 506 0 269 -1 495 -1 502 -1 14 -47 16 -56 2 -3 -5 -1 -208 5 -451 6 -243 9
-443 7 -445 -3 -4 -83 201 -239 616 -55 146 -105 271 -110 278 -16 19 -56 14
-68 -7z"/>
<path d="M4606 3058 c-7 -13 -48 -185 -90 -383 -42 -198 -90 -412 -106 -475
-30 -121 -28 -144 14 -138 18 3 24 21 51 158 l31 155 54 8 c84 11 208 -1 214
-22 2 -9 16 -70 31 -136 32 -146 39 -165 64 -165 31 0 31 23 0 137 -44 164
-189 813 -189 849 0 1 -7 10 -16 18 -22 22 -41 20 -58 -6z m84 -309 c26 -123
53 -243 58 -266 l10 -43 -120 0 c-110 0 -120 2 -116 18 3 9 29 131 58 269 30
139 55 251 57 249 2 -2 26 -104 53 -227z"/>
<path d="M1831 2804 c0 -11 3 -14 6 -6 3 7 2 16 -1 19 -3 4 -6 -2 -5 -13z"/>
<path d="M1816 2763 c-6 -14 -5 -15 5 -6 7 7 10 15 7 18 -3 3 -9 -2 -12 -12z"/>
<path d="M1148 2673 c6 -2 18 -2 25 0 6 3 1 5 -13 5 -14 0 -19 -2 -12 -5z"/>
<path d="M1090 2660 c-8 -5 -10 -10 -5 -10 6 0 17 5 25 10 8 5 11 10 5 10 -5
0 -17 -5 -25 -10z"/>
</g>
</svg>
